# xmcd CD database file
#
# Track frame offsets:
#	150
#	55329
#	111883
#	144776
#	181905
#	220567
#
# Disc length: 3521 seconds
#
# Revision: 0
# Processed by: cddbd v1.5.1PL0 Copyright (c) Steve Scherf et al.
# Submitted via: CDex 1.51
#
DISCID=4b0dbf06
DTITLE=Guy Lafitte - Live au HCF Paris 2 mai 1982
DYEAR=2002
DGENRE=Jazz
TTITLE0=The way ypu look tonight
TTITLE1=There will never be another you
TTITLE2=I can't get started with you
TTITLE3=Stompin' at the Savoy
TTITLE4=Body and soul
TTITLE5=Blues at the cave
EXTD=YEAR: 2002
EXTT0=
EXTT1=
EXTT2=
EXTT3=
EXTT4=
EXTT5=
PLAYORDER=
